# xmcd
#
# Track frame offsets:
#	225
#	13172
#	35769
#	54282
#	75448
#	89024
#	99317
#	123635
#	142509
#	160683
#	179933
#	202349
#	216136
#
# Disc length: 3063 seconds
#
# Revision: 0
# Processed by: cddbd v1.5.2PL0 Copyright (c) Steve Scherf et al.
# Submitted via: VUPlayer 2.49
#
DISCID=b50bf40d
DTITLE=Sandy Atkinson - Why Baby Why
DYEAR=1998
DGENRE=Blues Female
TTITLE0=Why Baby Why
TTITLE1=Tired Of Crying
TTITLE2=Someone Else Is Steppin In
TTITLE3=Mean Man (Acoustic)
TTITLE4=She Rocked
TTITLE5=Blue Skies and Sunshine
TTITLE6=Let It Go
TTITLE7=Boy You Better
TTITLE8=Hooked On You
TTITLE9=Like The Way It Should
TTITLE10=Mean Man (Electric)
TTITLE11=Out Of The Blue
TTITLE12=Snuggle Up
EXTD=
EXTT0=
EXTT1=
EXTT2=
EXTT3=
EXTT4=
EXTT5=
EXTT6=
EXTT7=
EXTT8=
EXTT9=
EXTT10=
EXTT11=
EXTT12=
PLAYORDER=
